<svg id="Layer_1" data-name="Layer 1" xmlns="http://www.w3.org/2000/svg" viewBox="0 0 338 100"><title>Artboard 1</title><polygon points="137.56 45.84 139.93 43.52 139.93 36.46 132.87 29.4 109.38 29.4 102.33 36.46 102.33 31.77 99.98 29.4 90.58 29.4 88.22 31.77 88.22 36.46 83.53 41.17 78.84 36.46 78.84 31.77 76.47 29.4 67.07 29.4 64.73 31.77 62.39 29.4 52.99 29.4 50.64 31.77 50.64 41.17 38.9 29.4 29.5 29.4 27.13 31.77 27.13 64.66 29.5 67 38.9 67 41.24 64.66 41.24 55.26 52.99 67 62.39 67 64.73 64.66 64.73 45.86 76.47 57.6 76.47 64.66 78.84 67 88.22 67 90.58 64.66 90.58 57.6 102.33 45.86 102.33 59.95 109.38 67 132.87 67 139.93 59.95 139.93 52.91 137.56 50.55 125.81 50.55 125.81 52.91 116.42 52.91 116.42 43.52 125.81 43.52 125.81 45.84 137.56 45.84" fill="#008384"/><path d="M138.56,30.38h.16c.19,0,.32-.07.32-.21s-.09-.21-.3-.21a.4.4,0,0,0-.19,0v.39Zm0,.79h-.32V29.75a3,3,0,0,1,.53,0,.78.78,0,0,1,.49.12.34.34,0,0,1,.14.3.37.37,0,0,1-.3.32v0c.14,0,.21.16.26.35a2,2,0,0,0,.09.35h-.35a1,1,0,0,1-.12-.35c0-.14-.12-.21-.3-.21h-.16v.56Zm-.88-.74a1.08,1.08,0,1,0,2.16,0,1.1,1.1,0,0,0-1.09-1.14,1.14,1.14,0,0,0-1.07,1.14Zm2.53,0a1.44,1.44,0,0,1-2.88,0,1.44,1.44,0,0,1,2.88,0Z" fill="#008384"/><g style="isolation:isolate"><path d="M149.83,29.55h6.71c4.79,0,7.65,2.91,7.65,7.74,0,5.11-2.91,7.87-7.65,7.87h-6.71Zm4.06,12.11h1.92c3.08-.07,4.3-1.27,4.3-4.39,0-2.84-1.53-4.22-4.3-4.22h-1.92Z"/><path d="M168.95,40.39A2.42,2.42,0,0,0,171.48,43a2.22,2.22,0,0,0,2.12-1.25h3.47c-.68,2.62-3.1,3.76-5.64,3.76-3.69,0-6.21-2.23-6.21-6a6,6,0,0,1,6.12-6c4.06,0,6.1,3.06,5.92,6.9Zm4.61-2.08A2.3,2.3,0,0,0,171.35,36a2.45,2.45,0,0,0-2.4,2.32Z"/><path d="M178.68,33.81h3.54v1.31h0a3.62,3.62,0,0,1,3.12-1.64c3.56,0,5.07,3.06,5.07,6.25,0,2.95-1.57,5.75-4.79,5.75a3.8,3.8,0,0,1-3.23-1.55h0v5h-3.71Zm3.58,5.55c0,2,.57,3.28,2.25,3.28s2.23-1.73,2.23-3.28-.57-3-2.21-3C183.53,36.32,182.27,37,182.27,39.36Z"/><path d="M191.81,37.31a3.49,3.49,0,0,1,1.77-3,7.48,7.48,0,0,1,3.61-.79c2.69,0,5.29.59,5.29,3.8v5a6.61,6.61,0,0,0,.44,2.91h-3.74a4.46,4.46,0,0,1-.22-1.07,5.12,5.12,0,0,1-3.74,1.4c-2.16,0-3.87-1.09-3.87-3.43,0-3.69,4-3.41,6.6-3.93.63-.13,1-.35,1-1,0-.85-1-1.18-1.79-1.18a1.66,1.66,0,0,0-1.86,1.42Zm4.81,5.88c1.77,0,2.36-1,2.27-3.34a10.5,10.5,0,0,1-2.29.61c-.83.2-1.53.55-1.53,1.44S195.78,43.18,196.61,43.18Z"/><path d="M204.58,33.81h3.6v2h0a3.42,3.42,0,0,1,3.41-2.21,4,4,0,0,1,.87.09v3.39a5.22,5.22,0,0,0-1.42-.22,2.61,2.61,0,0,0-2.8,2.69v5.62h-3.71Z"/><path d="M220.7,36.21H218.4v5.16c0,.9.52,1.09,1.33,1.09.31,0,.63,0,1,0v2.73c-.68,0-1.36.11-2,.11-3.17,0-4-.92-4-4v-5h-1.88v-2.4h1.88V30.38h3.71v3.43h2.29Z"/><path d="M222.13,33.81h3.61v1.55h0A3.78,3.78,0,0,1,229,33.48a3.28,3.28,0,0,1,3.3,1.83,4.15,4.15,0,0,1,3.54-1.83c3.61,0,4,2.73,4,4.89v6.77h-3.71V38.48c0-1.22-.59-1.94-1.55-1.94-1.59,0-1.75,1.22-1.75,3.06v5.55h-3.71V38.7c0-1.33-.39-2.16-1.4-2.16-1.33,0-1.9.77-1.9,3.08v5.53h-3.71Z"/><path d="M245.05,40.39A2.42,2.42,0,0,0,247.59,43a2.22,2.22,0,0,0,2.12-1.25h3.47c-.68,2.62-3.1,3.76-5.64,3.76-3.69,0-6.21-2.23-6.21-6a6,6,0,0,1,6.12-6c4.06,0,6.1,3.06,5.92,6.9Zm4.61-2.08A2.3,2.3,0,0,0,247.46,36a2.45,2.45,0,0,0-2.4,2.32Z"/><path d="M254.79,33.81h3.61v1.55h0A4.28,4.28,0,0,1,262,33.48c3.78,0,4.09,2.75,4.09,4.39v7.28h-3.71V39.67c0-1.55.18-3.12-1.86-3.12-1.4,0-2,1.18-2,2.43v6.18h-3.71Z"/><path d="M274.81,36.21h-2.29v5.16c0,.9.52,1.09,1.33,1.09.31,0,.63,0,1,0v2.73c-.68,0-1.36.11-2,.11-3.17,0-4-.92-4-4v-5h-1.88v-2.4h1.88V30.38h3.71v3.43h2.29Z"/><path d="M283.29,36.21H281.5v-2.4h1.79c0-3.26,1.14-4.26,4.3-4.26.59,0,1.2,0,1.79.07v2.62a8,8,0,0,0-1-.07c-.85,0-1.38.11-1.38,1.14v.5h2.23v2.4H287v8.94h-3.71Z"/><path d="M295.4,33.48a6,6,0,0,1,0,12,5.78,5.78,0,0,1-6-6A5.8,5.8,0,0,1,295.4,33.48Zm0,9.16c1.73,0,2.27-1.7,2.27-3.15s-.55-3.17-2.27-3.17-2.25,1.73-2.25,3.17S293.67,42.64,295.4,42.64Z"/><path d="M302.94,33.81h3.61v2h0A3.42,3.42,0,0,1,310,33.59a4,4,0,0,1,.87.09v3.39a5.21,5.21,0,0,0-1.42-.22,2.61,2.61,0,0,0-2.8,2.69v5.62h-3.71Z"/></g><g style="isolation:isolate"><path d="M156.51,58.08h-2.29v5.16c0,.9.52,1.09,1.33,1.09.31,0,.63,0,1,0V67c-.68,0-1.36.11-2,.11-3.17,0-4-.92-4-4v-5h-1.88v-2.4h1.88V52.24h3.71v3.43h2.29Z"/><path d="M157.94,51.41h3.71v5.81h0a4,4,0,0,1,3.45-1.88c3.78,0,4.09,2.75,4.09,4.39V67h-3.71V61.53c0-1.55.18-3.12-1.86-3.12-1.4,0-2,1.18-2,2.43V67h-3.71Z"/><path d="M174.39,62.25a2.42,2.42,0,0,0,2.53,2.58A2.22,2.22,0,0,0,179,63.58h3.47c-.68,2.62-3.1,3.76-5.64,3.76-3.69,0-6.21-2.23-6.21-6a6,6,0,0,1,6.12-6c4.06,0,6.1,3.06,5.92,6.9ZM179,60.17a2.3,2.3,0,0,0-2.21-2.32,2.45,2.45,0,0,0-2.4,2.32Z"/><path d="M195,51.41h4.13L204.93,67h-4.24l-1-2.8h-5.44l-1,2.8h-4.17Zm.26,9.79h3.54L197,55.74h0Z"/><path d="M216.71,65.64c0,1.86-.35,5.35-5.66,5.35-2.64,0-5.14-.59-5.57-3.63h3.71a1.21,1.21,0,0,0,.63,1,3,3,0,0,0,1.36.24c1.77,0,1.94-1.25,1.94-2.64V64.87h0a3.59,3.59,0,0,1-3,1.66c-3.43,0-5-2.45-5-5.64,0-3,1.77-5.55,5-5.55a3.28,3.28,0,0,1,3,1.75h0V55.67h3.56ZM211,58.19c-1.64,0-2.16,1.44-2.16,2.84s.61,2.67,2.14,2.67,2.25-1.22,2.25-2.64S212.63,58.19,211,58.19Z"/><path d="M222.49,54.25h-3.71V51.41h3.71Zm-3.71,1.42h3.71V67h-3.71Z"/><path d="M224.6,55.67h3.61v1.55h0a4.28,4.28,0,0,1,3.56-1.88c3.78,0,4.09,2.75,4.09,4.39V67h-3.71V61.53c0-1.55.17-3.12-1.86-3.12-1.4,0-2,1.18-2,2.43V67H224.6Z"/><path d="M248.94,65.64c0,1.86-.35,5.35-5.66,5.35-2.64,0-5.13-.59-5.57-3.63h3.71a1.21,1.21,0,0,0,.63,1,3,3,0,0,0,1.35.24c1.77,0,1.94-1.25,1.94-2.64V64.87h0a3.59,3.59,0,0,1-3,1.66c-3.43,0-5-2.45-5-5.64,0-3,1.77-5.55,5-5.55a3.28,3.28,0,0,1,3,1.75h0V55.67h3.56Zm-5.75-7.45c-1.64,0-2.16,1.44-2.16,2.84s.61,2.67,2.14,2.67,2.25-1.22,2.25-2.64S244.86,58.19,243.2,58.19Z"/></g></svg>